<svg width="65" height="90" viewBox="0 0 65 90" fill="none" xmlns="http://www.w3.org/2000/svg">
<rect width="65" height="90" fill="#041331"/>
<g clip-path="url(#clip0_0_1)">
<rect width="1440" height="2463" transform="translate(-40 -27)" fill="white"/>
<g clip-path="url(#clip1_0_1)">
<rect width="1440" height="144" transform="translate(-40 -27)" fill="white"/>
<path d="M0.135417 47.278H64.8646V77.0965C64.8646 84.1479 59.1482 89.8643 52.0967 89.8643H12.9033C5.85178 89.8643 0.135417 84.1479 0.135417 77.0964V47.278Z" fill="#D4EFC7" stroke="white" stroke-width="0.270833"/>
<path d="M0.135417 12.9033C0.135417 5.85177 5.85178 0.135417 12.9033 0.135417H52.0967C59.1482 0.135417 64.8646 5.85178 64.8646 12.9033V42.7217H0.135417V12.9033Z" fill="#C7EFE6" stroke="white" stroke-width="0.270833"/>
<path d="M34.4399 22.5974C35.042 22.5974 35.5367 22.6476 35.9238 22.7479C36.3252 22.8483 36.6621 22.9558 36.9345 23.0705L36.3754 25.5867C36.146 25.4863 35.8879 25.4146 35.6012 25.3716C35.3288 25.3286 35.0492 25.3071 34.7625 25.3071C34.3754 25.3071 34.0456 25.3644 33.7732 25.4791C33.5151 25.5795 33.3073 25.7229 33.1495 25.9093C33.0062 26.0956 32.8987 26.3179 32.827 26.5759C32.7696 26.834 32.7409 27.1136 32.7409 27.4146V27.9738H36.6979V30.6405H32.7409V39.2856H29.5366V27.3716C29.5366 25.9093 29.9452 24.748 30.7624 23.8877C31.594 23.0275 32.8198 22.5974 34.4399 22.5974ZM43.0851 39.5007C42.1532 39.4864 41.3933 39.386 40.8055 39.1996C40.232 39.0132 39.7732 38.7552 39.4291 38.4254C39.0994 38.0813 38.87 37.6727 38.741 37.1996C38.6263 36.7122 38.5689 36.1674 38.5689 35.5652V23.1135L41.7732 22.5974V34.92C41.7732 35.2068 41.7947 35.4648 41.8378 35.6942C41.8808 35.9236 41.9596 36.1172 42.0743 36.2749C42.2033 36.4326 42.3826 36.5616 42.6119 36.662C42.8413 36.7623 43.1496 36.8269 43.5367 36.8555L43.0851 39.5007ZM48.576 39.2856H45.3717V27.9738H48.576V39.2856ZM48.8771 24.7049C48.8771 25.2928 48.6835 25.7587 48.2964 26.1028C47.9237 26.4326 47.4792 26.5974 46.9631 26.5974C46.447 26.5974 45.9954 26.4326 45.6083 26.1028C45.2355 25.7587 45.0491 25.2928 45.0491 24.7049C45.0491 24.1171 45.2355 23.6583 45.6083 23.3286C45.9954 22.9845 46.447 22.8125 46.9631 22.8125C47.4792 22.8125 47.9237 22.9845 48.2964 23.3286C48.6835 23.6583 48.8771 24.1171 48.8771 24.7049ZM51.4806 25.1566L54.6849 24.6404V27.9738H58.5344V30.6405H54.6849V34.619C54.6849 35.2928 54.7996 35.8304 55.029 36.2319C55.2727 36.6333 55.753 36.834 56.4699 36.834C56.8139 36.834 57.1652 36.8053 57.5236 36.748C57.8964 36.6763 58.2333 36.5831 58.5344 36.4684L58.986 38.9631C58.5989 39.1208 58.1688 39.257 57.6957 39.3717C57.2226 39.4864 56.6419 39.5437 55.9537 39.5437C55.0792 39.5437 54.3552 39.429 53.7817 39.1996C53.2082 38.9559 52.7494 38.6261 52.4053 38.2104C52.0612 37.7803 51.8175 37.2641 51.6741 36.662C51.5451 36.0598 51.4806 35.3932 51.4806 34.662V25.1566Z" fill="#3C3C3C"/>
<path d="M34.4399 50.8831C35.042 50.8831 35.5367 50.9332 35.9238 51.0336C36.3252 51.134 36.6621 51.2415 36.9345 51.3562L36.3754 53.8723C36.146 53.772 35.8879 53.7003 35.6012 53.6573C35.3288 53.6142 35.0492 53.5927 34.7625 53.5927C34.3754 53.5927 34.0456 53.6501 33.7732 53.7648C33.5151 53.8651 33.3073 54.0085 33.1495 54.1949C33.0062 54.3813 32.8987 54.6035 32.827 54.8616C32.7696 55.1196 32.7409 55.3992 32.7409 55.7003V56.2594H36.6979V58.9261H32.7409V67.5713H29.5366V55.6573C29.5366 54.1949 29.9452 53.0336 30.7624 52.1734C31.594 51.3132 32.8198 50.8831 34.4399 50.8831ZM41.7517 67.5713H38.5474V56.2594H41.7517V67.5713ZM42.0528 52.9906C42.0528 53.5784 41.8593 54.0444 41.4722 54.3884C41.0994 54.7182 40.655 54.8831 40.1388 54.8831C39.6227 54.8831 39.1711 54.7182 38.784 54.3884C38.4112 54.0444 38.2248 53.5784 38.2248 52.9906C38.2248 52.4028 38.4112 51.944 38.784 51.6142C39.1711 51.2702 39.6227 51.0981 40.1388 51.0981C40.655 51.0981 41.0994 51.2702 41.4722 51.6142C41.8593 51.944 42.0528 52.4028 42.0528 52.9906ZM49.924 67.7863C48.9921 67.772 48.2322 67.6716 47.6444 67.4853C47.0709 67.2989 46.6121 67.0408 46.268 66.7111C45.9383 66.367 45.7089 65.9584 45.5799 65.4853C45.4652 64.9978 45.4078 64.453 45.4078 63.8508V51.3992L48.6121 50.8831V63.2057C48.6121 63.4924 48.6336 63.7505 48.6767 63.9799C48.7197 64.2093 48.7985 64.4028 48.9132 64.5605C49.0422 64.7182 49.2215 64.8473 49.4508 64.9476C49.6802 65.048 49.9885 65.1125 50.3756 65.1412L49.924 67.7863ZM57.3736 67.7863C56.4417 67.772 55.6818 67.6716 55.094 67.4853C54.5205 67.2989 54.0618 67.0408 53.7177 66.7111C53.3879 66.367 53.1585 65.9584 53.0295 65.4853C52.9148 64.9978 52.8574 64.453 52.8574 63.8508V51.3992L56.0618 50.8831V63.2057C56.0618 63.4924 56.0833 63.7505 56.1263 63.9799C56.1693 64.2093 56.2481 64.4028 56.3628 64.5605C56.4919 64.7182 56.6711 64.8473 56.9005 64.9476C57.1299 65.048 57.4381 65.1125 57.8252 65.1412L57.3736 67.7863Z" fill="#3C3C3C"/>
<path d="M5.63003 23.1445H9.54938C10.4995 23.1445 11.2698 23.9147 11.2698 24.8649V37.7067C11.2698 38.6568 10.4995 39.4271 9.54938 39.4271H5.63003V23.1445Z" fill="white" stroke="#744949" stroke-width="0.860218"/>
<path d="M5.63003 51.4301H9.54938C10.4995 51.4301 11.2698 52.2004 11.2698 53.1505V65.9923C11.2698 66.9425 10.4995 67.7127 9.54938 67.7127H5.63003V51.4301Z" fill="white" stroke="#744949" stroke-width="0.860218"/>
</g>
<g clip-path="url(#clip2_0_1)">
<rect width="1440" height="144" transform="translate(-40 -27)" fill="white"/>
<path d="M0.135417 47.278H64.8646V77.0965C64.8646 84.1479 59.1482 89.8643 52.0967 89.8643H12.9033C5.85178 89.8643 0.135417 84.1479 0.135417 77.0964V47.278Z" fill="#D4EFC7" stroke="white" stroke-width="0.270833"/>
<path d="M0.135417 12.9033C0.135417 5.85177 5.85178 0.135417 12.9033 0.135417H52.0967C59.1482 0.135417 64.8646 5.85178 64.8646 12.9033V42.7217H0.135417V12.9033Z" fill="#C7EFE6" stroke="white" stroke-width="0.270833"/>
<path d="M34.4399 22.5974C35.042 22.5974 35.5367 22.6476 35.9238 22.7479C36.3252 22.8483 36.6621 22.9558 36.9345 23.0705L36.3754 25.5867C36.146 25.4863 35.8879 25.4146 35.6012 25.3716C35.3288 25.3286 35.0492 25.3071 34.7625 25.3071C34.3754 25.3071 34.0456 25.3644 33.7732 25.4791C33.5151 25.5795 33.3073 25.7229 33.1495 25.9093C33.0062 26.0956 32.8987 26.3179 32.827 26.5759C32.7696 26.834 32.7409 27.1136 32.7409 27.4146V27.9738H36.6979V30.6405H32.7409V39.2856H29.5366V27.3716C29.5366 25.9093 29.9452 24.748 30.7624 23.8877C31.594 23.0275 32.8198 22.5974 34.4399 22.5974ZM43.0851 39.5007C42.1532 39.4864 41.3933 39.386 40.8055 39.1996C40.232 39.0132 39.7732 38.7552 39.4291 38.4254C39.0994 38.0813 38.87 37.6727 38.741 37.1996C38.6263 36.7122 38.5689 36.1674 38.5689 35.5652V23.1135L41.7732 22.5974V34.92C41.7732 35.2068 41.7947 35.4648 41.8378 35.6942C41.8808 35.9236 41.9596 36.1172 42.0743 36.2749C42.2033 36.4326 42.3826 36.5616 42.6119 36.662C42.8413 36.7623 43.1496 36.8269 43.5367 36.8555L43.0851 39.5007ZM48.576 39.2856H45.3717V27.9738H48.576V39.2856ZM48.8771 24.7049C48.8771 25.2928 48.6835 25.7587 48.2964 26.1028C47.9237 26.4326 47.4792 26.5974 46.9631 26.5974C46.447 26.5974 45.9954 26.4326 45.6083 26.1028C45.2355 25.7587 45.0491 25.2928 45.0491 24.7049C45.0491 24.1171 45.2355 23.6583 45.6083 23.3286C45.9954 22.9845 46.447 22.8125 46.9631 22.8125C47.4792 22.8125 47.9237 22.9845 48.2964 23.3286C48.6835 23.6583 48.8771 24.1171 48.8771 24.7049ZM51.4806 25.1566L54.6849 24.6404V27.9738H58.5344V30.6405H54.6849V34.619C54.6849 35.2928 54.7996 35.8304 55.029 36.2319C55.2727 36.6333 55.753 36.834 56.4699 36.834C56.8139 36.834 57.1652 36.8053 57.5236 36.748C57.8964 36.6763 58.2333 36.5831 58.5344 36.4684L58.986 38.9631C58.5989 39.1208 58.1688 39.257 57.6957 39.3717C57.2226 39.4864 56.6419 39.5437 55.9537 39.5437C55.0792 39.5437 54.3552 39.429 53.7817 39.1996C53.2082 38.9559 52.7494 38.6261 52.4053 38.2104C52.0612 37.7803 51.8175 37.2641 51.6741 36.662C51.5451 36.0598 51.4806 35.3932 51.4806 34.662V25.1566Z" fill="#3C3C3C"/>
<path d="M34.4399 50.8831C35.042 50.8831 35.5367 50.9332 35.9238 51.0336C36.3252 51.134 36.6621 51.2415 36.9345 51.3562L36.3754 53.8723C36.146 53.772 35.8879 53.7003 35.6012 53.6573C35.3288 53.6142 35.0492 53.5927 34.7625 53.5927C34.3754 53.5927 34.0456 53.6501 33.7732 53.7648C33.5151 53.8651 33.3073 54.0085 33.1495 54.1949C33.0062 54.3813 32.8987 54.6035 32.827 54.8616C32.7696 55.1196 32.7409 55.3992 32.7409 55.7003V56.2594H36.6979V58.9261H32.7409V67.5713H29.5366V55.6573C29.5366 54.1949 29.9452 53.0336 30.7624 52.1734C31.594 51.3132 32.8198 50.8831 34.4399 50.8831ZM41.7517 67.5713H38.5474V56.2594H41.7517V67.5713ZM42.0528 52.9906C42.0528 53.5784 41.8593 54.0444 41.4722 54.3884C41.0994 54.7182 40.655 54.8831 40.1388 54.8831C39.6227 54.8831 39.1711 54.7182 38.784 54.3884C38.4112 54.0444 38.2248 53.5784 38.2248 52.9906C38.2248 52.4028 38.4112 51.944 38.784 51.6142C39.1711 51.2702 39.6227 51.0981 40.1388 51.0981C40.655 51.0981 41.0994 51.2702 41.4722 51.6142C41.8593 51.944 42.0528 52.4028 42.0528 52.9906ZM49.924 67.7863C48.9921 67.772 48.2322 67.6716 47.6444 67.4853C47.0709 67.2989 46.6121 67.0408 46.268 66.7111C45.9383 66.367 45.7089 65.9584 45.5799 65.4853C45.4652 64.9978 45.4078 64.453 45.4078 63.8508V51.3992L48.6121 50.8831V63.2057C48.6121 63.4924 48.6336 63.7505 48.6767 63.9799C48.7197 64.2093 48.7985 64.4028 48.9132 64.5605C49.0422 64.7182 49.2215 64.8473 49.4508 64.9476C49.6802 65.048 49.9885 65.1125 50.3756 65.1412L49.924 67.7863ZM57.3736 67.7863C56.4417 67.772 55.6818 67.6716 55.094 67.4853C54.5205 67.2989 54.0618 67.0408 53.7177 66.7111C53.3879 66.367 53.1585 65.9584 53.0295 65.4853C52.9148 64.9978 52.8574 64.453 52.8574 63.8508V51.3992L56.0618 50.8831V63.2057C56.0618 63.4924 56.0833 63.7505 56.1263 63.9799C56.1693 64.2093 56.2481 64.4028 56.3628 64.5605C56.4919 64.7182 56.6711 64.8473 56.9005 64.9476C57.1299 65.048 57.4381 65.1125 57.8252 65.1412L57.3736 67.7863Z" fill="#3C3C3C"/>
<path d="M5.63003 23.1445H9.54938C10.4995 23.1445 11.2698 23.9147 11.2698 24.8649V37.7067C11.2698 38.6568 10.4995 39.4271 9.54938 39.4271H5.63003V23.1445Z" fill="white" stroke="#744949" stroke-width="0.860218"/>
<path d="M5.63003 51.4301H9.54938C10.4995 51.4301 11.2698 52.2004 11.2698 53.1505V65.9923C11.2698 66.9425 10.4995 67.7127 9.54938 67.7127H5.63003V51.4301Z" fill="white" stroke="#744949" stroke-width="0.860218"/>
</g>
</g>
<defs>
<clipPath id="clip0_0_1">
<rect width="1440" height="2463" fill="white" transform="translate(-40 -27)"/>
</clipPath>
<clipPath id="clip1_0_1">
<rect width="1440" height="144" fill="white" transform="translate(-40 -27)"/>
</clipPath>
<clipPath id="clip2_0_1">
<rect width="1440" height="144" fill="white" transform="translate(-40 -27)"/>
</clipPath>
</defs>
</svg>
